<?xml version="1.0" encoding="iso-8859-1"?>
<!-- Generator: Adobe Illustrator 19.0.0, SVG Export Plug-In . SVG Version: 6.00 Build 0)  -->
<svg xmlns="http://www.w3.org/2000/svg" xmlns:xlink="http://www.w3.org/1999/xlink" version="1.1" id="Layer_1" x="0px" y="0px" viewBox="0 0 512 512" style="enable-background:new 0 0 512 512;" xml:space="preserve" width="512px" height="512px">
<g>
	<g>
		<path d="M385.297,400.309l-103.98-208.762h10.287c8.656,0,15.673-7.018,15.673-15.673v-71.208c0-8.656-7.018-15.673-15.673-15.673    h-71.208c-8.656,0-15.673,7.018-15.673,15.673v71.208c0,8.656,7.018,15.673,15.673,15.673h10.287l-103.98,208.762    c-6.401,12.851,6.495,26.824,19.796,21.561L256,378.543l109.501,43.327C378.708,427.099,391.737,413.236,385.297,400.309z" fill="#FFFFFF"/>
	</g>
</g>
<g>
	<g>
		<path d="M472.591,100.858c-16.162,0-30.076,9.783-36.149,23.736h-97.817v31.347h97.817c6.073,13.953,19.987,23.736,36.149,23.736    c21.731,0,39.409-17.679,39.409-39.409C512,118.538,494.321,100.858,472.591,100.858z" fill="#FFFFFF"/>
	</g>
</g>
<g>
	<g>
		<path d="M75.56,124.594c-6.074-13.953-19.988-23.736-36.15-23.736C17.679,100.858,0,118.538,0,140.268    c0,21.73,17.679,39.409,39.409,39.409c16.162,0,30.077-9.783,36.15-23.736h97.816v-31.347H75.56z" fill="#FFFFFF"/>
	</g>
</g>
<g>
</g>
<g>
</g>
<g>
</g>
<g>
</g>
<g>
</g>
<g>
</g>
<g>
</g>
<g>
</g>
<g>
</g>
<g>
</g>
<g>
</g>
<g>
</g>
<g>
</g>
<g>
</g>
<g>
</g>
</svg>
