<?xml version="1.0" encoding="iso-8859-1"?>
<!-- Generator: Adobe Illustrator 19.0.0, SVG Export Plug-In . SVG Version: 6.00 Build 0)  -->
<svg xmlns="http://www.w3.org/2000/svg" xmlns:xlink="http://www.w3.org/1999/xlink" version="1.1" id="Capa_1" x="0px" y="0px" viewBox="0 0 490 490" style="enable-background:new 0 0 490 490;" xml:space="preserve" width="512px" height="512px">
<g>
	<path d="M395.239,290.953c25.361,0,45.99-20.614,45.99-45.953c0-25.335-20.628-45.949-45.99-45.949   c-25.354,0-45.982,20.613-45.982,45.949C349.257,270.339,369.885,290.953,395.239,290.953z M395.239,214.364   c16.912,0,30.677,13.742,30.677,30.636c0,16.898-13.765,30.64-30.677,30.64c-16.913,0-30.67-13.742-30.67-30.64   C364.569,228.106,378.326,214.364,395.239,214.364z" fill="#FFFFFF"/>
	<path d="M94.761,48.958c-25.361,0-45.99,20.614-45.99,45.952c0,25.335,20.628,45.949,45.99,45.949   c25.354,0,45.982-20.614,45.982-45.949C140.743,69.572,120.115,48.958,94.761,48.958z M94.761,125.547   c-16.912,0-30.677-13.742-30.677-30.636c0-16.894,13.765-30.64,30.677-30.64c16.913,0,30.67,13.746,30.67,30.64   C125.431,111.804,111.674,125.547,94.761,125.547z" fill="#FFFFFF"/>
	<path d="M94.761,300.418C42.513,300.418,0,342.886,0,395.089c0,52.203,42.513,94.671,94.761,94.671   c52.248,0,94.754-42.468,94.754-94.671c0-12.45-2.48-24.316-6.87-35.215l130.172-68.342c16.295,28.698,47.106,48.139,82.423,48.139   C447.487,339.671,490,297.203,490,245s-42.513-94.671-94.761-94.671c-33.478,0-62.888,17.483-79.747,43.743L183.12,128.826   c4.07-10.546,6.394-21.953,6.394-33.916c0-52.203-42.506-94.671-94.754-94.671C42.513,0.239,0,42.708,0,94.911   c0,52.199,42.513,94.668,94.761,94.668c34.823,0,65.237-18.92,81.704-46.958l131.773,64.953   c-4.97,11.489-7.753,24.135-7.753,37.427c0,11.471,2.156,22.422,5.913,32.606l-130.652,68.591   C159.123,318.814,129.091,300.418,94.761,300.418z M94.761,474.448c-43.807,0-79.449-35.597-79.449-79.359   c0-43.762,35.642-79.359,79.449-79.359c43.807,0,79.441,35.597,79.441,79.359C174.202,438.851,138.568,474.448,94.761,474.448z    M395.239,165.641c43.807,0,79.448,35.601,79.448,79.359c0,43.762-35.642,79.359-79.448,79.359   c-43.807,0-79.441-35.597-79.441-79.359C315.798,201.242,351.432,165.641,395.239,165.641z M94.761,174.266   c-43.807,0-79.449-35.597-79.449-79.355s35.642-79.359,79.449-79.359c43.807,0,79.441,35.601,79.441,79.359   S138.568,174.266,94.761,174.266z" fill="#FFFFFF"/>
	<path d="M94.761,349.144c-25.361,0-45.99,20.614-45.99,45.945c0,25.339,20.628,45.953,45.99,45.953   c25.354,0,45.982-20.614,45.982-45.953C140.743,369.758,120.115,349.144,94.761,349.144z M94.761,425.729   c-16.912,0-30.677-13.742-30.677-30.64c0-16.89,13.765-30.632,30.677-30.632c16.913,0,30.67,13.742,30.67,30.632   C125.431,411.987,111.674,425.729,94.761,425.729z" fill="#FFFFFF"/>
</g>
<g>
</g>
<g>
</g>
<g>
</g>
<g>
</g>
<g>
</g>
<g>
</g>
<g>
</g>
<g>
</g>
<g>
</g>
<g>
</g>
<g>
</g>
<g>
</g>
<g>
</g>
<g>
</g>
<g>
</g>
</svg>
