<?xml version="1.0" encoding="iso-8859-1"?>
<!-- Generator: Adobe Illustrator 19.0.0, SVG Export Plug-In . SVG Version: 6.00 Build 0)  -->
<svg xmlns="http://www.w3.org/2000/svg" xmlns:xlink="http://www.w3.org/1999/xlink" version="1.1" id="Layer_1" x="0px" y="0px" viewBox="0 0 512 512" style="enable-background:new 0 0 512 512;" xml:space="preserve" width="512px" height="512px">
<g>
	<g>
		<g>
			<path d="M68.145,261.03c2.581-11.499-4.651-22.912-16.128-25.493c-11.627-2.603-22.912,4.629-25.493,16.149     c-3.435,15.275-5.184,31.104-5.184,46.976H0.006v85.333H85.34v-85.333H64.006C64.006,285.926,65.393,273.276,68.145,261.03z" fill="#FFFFFF"/>
			<path d="M127.042,166.157c9.131-7.445,10.496-20.885,3.072-30.016c-7.445-9.088-20.864-10.496-30.037-3.072     c-12.224,9.984-23.36,21.312-33.109,33.685c-7.296,9.259-5.717,22.677,3.541,29.973c3.904,3.072,8.555,4.565,13.184,4.565     c6.315,0,12.565-2.795,16.768-8.128C108.29,183.245,117.229,174.157,127.042,166.157z" fill="#FFFFFF"/>
			<path d="M441.5,196.719c9.259-7.296,10.837-20.715,3.541-29.952c-9.749-12.395-20.885-23.723-33.131-33.685     c-9.109-7.445-22.549-6.037-30.016,3.051c-7.445,9.131-6.059,22.571,3.072,30.016c9.813,8,18.752,17.088,26.581,27.008     c4.203,5.333,10.453,8.128,16.768,8.128C432.924,201.284,437.574,199.812,441.5,196.719z" fill="#FFFFFF"/>
			<path d="M485.478,251.678c-2.581-11.499-13.867-18.773-25.493-16.128c-11.477,2.581-18.709,13.995-16.128,25.472     c2.752,12.245,4.139,24.896,4.139,37.653h-21.333v85.333h85.333v-85.333h-21.333     C490.662,282.782,488.913,266.974,485.478,251.678z" fill="#FFFFFF"/>
			<path d="M42.667,106.667c15.744,0,29.355-8.64,36.757-21.333H192v4.565c-2.539,0.512-5.12,0.789-7.616,1.387     c-11.477,2.773-18.517,14.293-15.744,25.749c2.368,9.771,11.093,16.32,20.715,16.32c1.664,0,3.328-0.171,5.013-0.576     c12.224-2.965,24.853-4.544,37.589-4.757c0.043,0,0.064-0.021,0.107-0.021h47.872c0.043,0,0.064,0.021,0.107,0.021     c12.736,0.213,25.365,1.792,37.589,4.757c1.685,0.405,3.349,0.576,5.013,0.576c9.621,0,18.347-6.549,20.715-16.32     c2.773-11.456-4.267-22.976-15.744-25.749c-2.496-0.597-5.077-0.875-7.616-1.387v-4.565h112.576     c7.403,12.693,21.013,21.333,36.757,21.333C492.907,106.667,512,87.573,512,64c0-23.573-19.093-42.667-42.667-42.667     c-15.744,0-29.355,8.64-36.757,21.333H320V21.333C320,9.557,310.464,0,298.667,0h-85.333C201.536,0,192,9.557,192,21.333v21.333     H79.424c-7.403-12.693-21.013-21.333-36.757-21.333C19.093,21.333,0,40.427,0,64C0,87.573,19.093,106.667,42.667,106.667z" fill="#FFFFFF"/>
			<path d="M192,490.667c0,11.776,9.536,21.333,21.333,21.333h85.333c11.797,0,21.333-9.557,21.333-21.333v-64H192V490.667z" fill="#FFFFFF"/>
			<path d="M272.188,156.781c-8.085-9.451-24.299-9.451-32.384,0l-128,149.333c-5.419,6.315-6.656,15.232-3.179,22.805     c3.477,7.552,11.051,12.416,19.371,12.416c27.776,0,51.243,17.877,60.075,42.667h135.851     c8.853-24.789,32.299-42.667,60.075-42.667c8.341,0,15.893-4.864,19.371-12.416c3.477-7.573,2.261-16.491-3.179-22.805     L272.188,156.781z" fill="#FFFFFF"/>
		</g>
	</g>
</g>
<g>
</g>
<g>
</g>
<g>
</g>
<g>
</g>
<g>
</g>
<g>
</g>
<g>
</g>
<g>
</g>
<g>
</g>
<g>
</g>
<g>
</g>
<g>
</g>
<g>
</g>
<g>
</g>
<g>
</g>
</svg>
